<svg width="44" height="44" viewBox="0 0 44 44" fill="none" xmlns="http://www.w3.org/2000/svg">
<path d="M9.73339 22.8667C1.93342 28.6074 0.400024 37 0.400024 44C0.755581 41.9111 2.38669 37.0133 6.06669 34.1333C11.5334 29.8551 21.5333 31.2645 32.4667 24C43.4001 16.7355 44.4667 7.26667 43.0667 0C42.094 7.01177 38.7744 10.0676 34.2 12.8C24.2668 18.7333 18.0668 16.7333 9.73339 22.8667Z" fill="url(#paint0_linear)"/>
<path d="M9.73339 22.8667C1.93342 28.6074 0.400024 37 0.400024 44C0.755581 41.9111 2.38669 37.0133 6.06669 34.1333C11.5334 29.8551 21.5333 31.2645 32.4667 24C43.4001 16.7355 44.4667 7.26667 43.0667 0C42.094 7.01177 38.7744 10.0676 34.2 12.8C24.2668 18.7333 18.0668 16.7333 9.73339 22.8667Z" fill="url(#paint1_linear)"/>
<path d="M0.493286 41.1306C0.921297 34.8056 2.97503 27.8407 9.73333 22.8666C14.0777 19.6692 17.8422 18.6822 21.8582 17.6293C24.2018 17.0148 26.6311 16.3779 29.3112 15.2661C28.3334 16.2 23.6871 18.38 20.1825 19.8365C16.6871 21.2893 13.0018 22.821 9.93337 24.8666C3.77698 28.9709 1.27374 36.1117 0.493286 41.1306Z" fill="url(#paint2_linear)"/>
<path d="M0.493286 41.1306C0.921297 34.8056 2.97503 27.8407 9.73333 22.8666C14.0777 19.6692 17.8422 18.6822 21.8582 17.6293C24.2018 17.0148 26.6311 16.3779 29.3112 15.2661C28.3334 16.2 23.6871 18.38 20.1825 19.8365C16.6871 21.2893 13.0018 22.821 9.93337 24.8666C3.77698 28.9709 1.27374 36.1117 0.493286 41.1306Z" fill="url(#paint3_linear)"/>
<path d="M38.4355 18.8084C37.6689 19.5593 36.8141 20.2316 35.8668 20.8C31.6001 23.36 27.065 24.1856 22.6522 24.9889C19.1357 25.6291 15.6969 26.2551 12.5334 27.7333C5.40058 31.0664 1.00069 37.9991 0.400226 43.9988C0.400183 43.9991 0.40014 43.9993 0.400097 43.9996C0.400073 43.9985 0.400049 43.9974 0.400024 43.9963C0.400059 43.5384 0.406661 43.0744 0.421154 42.6057C0.457497 41.862 0.534385 41.038 0.661607 40.1592C1.60328 35.225 4.16441 28.7126 9.93341 24.8666C12.3756 23.2385 15.2084 21.936 18.0254 20.7397C20.5027 19.9263 22.7354 19.4202 24.8626 18.9379C28.2111 18.1787 31.2983 17.4788 34.6668 15.7333C41.7349 12.0707 43.5868 4.54426 43.089 0.116943C44.1458 5.7267 43.7186 12.6265 38.4355 18.8084Z" fill="url(#paint4_linear)"/>
<path d="M38.4353 18.8086C37.6687 19.5594 36.8141 20.2316 35.8668 20.8C31.6001 23.36 27.065 24.1856 22.6522 24.9889C19.1357 25.6291 15.6969 26.2551 12.5334 27.7333C8.43133 29.6502 5.23312 32.7576 3.14166 36.1934C4.98704 33.6004 7.79832 30.7036 11.2668 29.6C14.6512 28.5231 17.8795 28.4119 21.2334 28.2963C22.1947 28.2631 23.1662 28.2296 24.1548 28.173C26.819 27.2031 29.611 25.8974 32.4667 24C34.9282 22.3645 36.8896 20.6173 38.4353 18.8086Z" fill="url(#paint5_linear)"/>
<path d="M38.4353 18.8086C37.6687 19.5594 36.8141 20.2316 35.8668 20.8C31.6001 23.36 27.065 24.1856 22.6522 24.9889C19.1357 25.6291 15.6969 26.2551 12.5334 27.7333C8.43133 29.6502 5.23312 32.7576 3.14166 36.1934C4.98704 33.6004 7.79832 30.7036 11.2668 29.6C14.6512 28.5231 17.8795 28.4119 21.2334 28.2963C22.1947 28.2631 23.1662 28.2296 24.1548 28.173C26.819 27.2031 29.611 25.8974 32.4667 24C34.9282 22.3645 36.8896 20.6173 38.4353 18.8086Z" fill="url(#paint6_linear)"/>
<path d="M43.0889 0.116943C43.0816 0.0779002 43.0741 0.0389175 43.0666 0C42.0939 7.01177 38.7744 10.0676 34.2 12.8C32.4671 13.8351 30.8479 14.6287 29.3111 15.2662C28.3331 16.2001 23.687 18.38 20.1825 19.8366L20.1819 19.8368C19.4687 20.1332 18.7476 20.4329 18.0254 20.7396C20.5027 19.9263 22.7353 19.4201 24.8625 18.9379C28.2111 18.1787 31.2982 17.4788 34.6667 15.7333C41.7349 12.0707 43.5867 4.54426 43.0889 0.116943Z" fill="url(#paint7_linear)"/>
<path d="M43.0889 0.116943C43.0816 0.0779002 43.0741 0.0389175 43.0666 0C42.0939 7.01177 38.7744 10.0676 34.2 12.8C32.4671 13.8351 30.8479 14.6287 29.3111 15.2662C28.3331 16.2001 23.687 18.38 20.1825 19.8366L20.1819 19.8368C19.4687 20.1332 18.7476 20.4329 18.0254 20.7396C20.5027 19.9263 22.7353 19.4201 24.8625 18.9379C28.2111 18.1787 31.2982 17.4788 34.6667 15.7333C41.7349 12.0707 43.5867 4.54426 43.0889 0.116943Z" fill="url(#paint8_linear)"/>
<defs>
<linearGradient id="paint0_linear" x1="24.8" y1="26.4667" x2="1.73336" y2="43" gradientUnits="userSpaceOnUse">
<stop stop-color="#FE5004"/>
<stop offset="0.602538" stop-color="#FFB915"/>
<stop offset="1" stop-color="#FFFC41"/>
</linearGradient>
<linearGradient id="paint1_linear" x1="15.6667" y1="27.8667" x2="15.8" y2="30.2667" gradientUnits="userSpaceOnUse">
<stop stop-color="#FD3E00"/>
<stop offset="1" stop-color="#FD4400" stop-opacity="0"/>
</linearGradient>
<linearGradient id="paint2_linear" x1="29.3333" y1="14.0666" x2="-3.20001" y2="43" gradientUnits="userSpaceOnUse">
<stop stop-color="#005FC6"/>
<stop offset="0.279756" stop-color="#23A4DF"/>
<stop offset="0.465158" stop-color="#3AC2B7"/>
<stop offset="0.640642" stop-color="#60EC7A"/>
<stop offset="0.818668" stop-color="#CFFDBD"/>
<stop offset="1" stop-color="#D0FCB6"/>
</linearGradient>
<linearGradient id="paint3_linear" x1="22.7333" y1="19.6" x2="19.9333" y2="17.0667" gradientUnits="userSpaceOnUse">
<stop stop-color="#0061CB"/>
<stop offset="1" stop-color="#067EEA" stop-opacity="0"/>
</linearGradient>
<linearGradient id="paint4_linear" x1="43.2" y1="0.0666667" x2="0.400028" y2="43.9333" gradientUnits="userSpaceOnUse">
<stop stop-color="#8E55F1"/>
<stop offset="0.140795" stop-color="#8B48DF"/>
<stop offset="0.274905" stop-color="#E04DD9"/>
<stop offset="0.492309" stop-color="#F496C8"/>
<stop offset="0.633104" stop-color="#FAD2BA"/>
<stop offset="0.856964" stop-color="#FEF7E5"/>
<stop offset="1" stop-color="#FFF5BF"/>
</linearGradient>
<linearGradient id="paint5_linear" x1="39" y1="18.4" x2="4.06666" y2="34.2" gradientUnits="userSpaceOnUse">
<stop stop-color="#F41A73"/>
<stop offset="0.399909" stop-color="#FC50A3"/>
<stop offset="0.584511" stop-color="#FE9485"/>
<stop offset="0.703104" stop-color="#FFAF88"/>
<stop offset="1" stop-color="#FFC385"/>
</linearGradient>
<linearGradient id="paint6_linear" x1="26.4" y1="23.2667" x2="26.4667" y2="26.4667" gradientUnits="userSpaceOnUse">
<stop stop-color="#9B0008"/>
<stop offset="1" stop-color="#EA115A" stop-opacity="0"/>
</linearGradient>
<linearGradient id="paint7_linear" x1="43.2" y1="3.66667" x2="11.6666" y2="24.2667" gradientUnits="userSpaceOnUse">
<stop stop-color="#231283"/>
<stop offset="0.362865" stop-color="#7053C6"/>
<stop offset="0.466353" stop-color="#7272DB"/>
<stop offset="0.634311" stop-color="#399EE9"/>
<stop offset="1" stop-color="#00CFFF"/>
</linearGradient>
<linearGradient id="paint8_linear" x1="35.3333" y1="14.0667" x2="36.7333" y2="15.8667" gradientUnits="userSpaceOnUse">
<stop stop-color="#3F259D" stop-opacity="0"/>
<stop offset="1" stop-color="#412DAA"/>
</linearGradient>
</defs>
</svg>
